<svg width="50" height="50" viewBox="0 0 50 50" fill="none" xmlns="http://www.w3.org/2000/svg">

<g id="commas">
    <path d="M9.54167 12.8333C9.07708 12.8333 8.63125 12.9042 8.1875 12.9688C8.33125 12.4854 8.47917 11.9938 8.71667 11.5521C8.95417 10.9104 9.325 10.3542 9.69375 9.79375C10.0021 9.1875 10.5458 8.77709 10.9458 8.25834C11.3646 7.75417 11.9354 7.41875 12.3875 7C12.8312 6.5625 13.4125 6.34375 13.875 6.03542C14.3583 5.75834 14.7792 5.45209 15.2292 5.30625L16.3521 4.84375L17.3396 4.43334L16.3292 0.395836L15.0854 0.695835C14.6875 0.795835 14.2021 0.912502 13.65 1.05209C13.0854 1.15625 12.4833 1.44167 11.8125 1.70209C11.15 1.99792 10.3833 2.19792 9.67083 2.67292C8.95417 3.12709 8.12708 3.50625 7.39791 4.11459C6.69166 4.74167 5.83958 5.28542 5.21041 6.08334C4.52291 6.82917 3.84375 7.6125 3.31666 8.50417C2.70625 9.35417 2.29166 10.2875 1.85416 11.2104C1.45833 12.1333 1.13958 13.0771 0.879164 13.9938C0.385414 15.8313 0.164581 17.5771 0.079164 19.0708C0.0083307 20.5667 0.0499974 21.8104 0.137497 22.7104C0.168747 23.1354 0.227081 23.5479 0.268748 23.8333L0.320831 24.1833L0.374997 24.1708C0.745541 25.9017 1.59855 27.4924 2.83534 28.7587C4.07213 30.0251 5.64217 30.9154 7.36383 31.3267C9.08549 31.738 10.8884 31.6535 12.5641 31.083C14.2397 30.5124 15.7196 29.4792 16.8325 28.1027C17.9454 26.7262 18.6459 25.0628 18.853 23.3048C19.06 21.5468 18.7651 19.7662 18.0024 18.1688C17.2396 16.5714 16.0403 15.2226 14.543 14.2784C13.0458 13.3342 11.3118 12.8332 9.54167 12.8333ZM32.4583 12.8333C31.9937 12.8333 31.5479 12.9042 31.1042 12.9688C31.2479 12.4854 31.3958 11.9938 31.6333 11.5521C31.8708 10.9104 32.2417 10.3542 32.6104 9.79375C32.9188 9.1875 33.4625 8.77709 33.8625 8.25834C34.2812 7.75417 34.8521 7.41875 35.3042 7C35.7479 6.5625 36.3292 6.34375 36.7917 6.03542C37.275 5.75834 37.6958 5.45209 38.1458 5.30625L39.2687 4.84375L40.2562 4.43334L39.2458 0.395836L38.0021 0.695835C37.6042 0.795835 37.1187 0.912502 36.5667 1.05209C36.0021 1.15625 35.4 1.44167 34.7292 1.70209C34.0688 2 33.3 2.19792 32.5875 2.675C31.8708 3.12917 31.0438 3.50834 30.3146 4.11667C29.6083 4.74375 28.7562 5.2875 28.1271 6.08334C27.4396 6.82917 26.7604 7.6125 26.2333 8.50417C25.6229 9.35417 25.2083 10.2875 24.7708 11.2104C24.375 12.1333 24.0562 13.0771 23.7958 13.9938C23.3021 15.8313 23.0812 17.5771 22.9958 19.0708C22.925 20.5667 22.9667 21.8104 23.0542 22.7104C23.0854 23.1354 23.1437 23.5479 23.1854 23.8333L23.2375 24.1833L23.2917 24.1708C23.6622 25.9017 24.5152 27.4924 25.752 28.7587C26.9888 30.0251 28.5588 30.9154 30.2805 31.3267C32.0022 31.738 33.8051 31.6535 35.4807 31.083C37.1564 30.5124 38.6363 29.4792 39.7492 28.1027C40.8621 26.7262 41.5626 25.0628 41.7696 23.3048C41.9766 21.5468 41.6817 19.7662 40.919 18.1688C40.1563 16.5714 38.957 15.2226 37.4597 14.2784C35.9624 13.3342 34.2284 12.8332 32.4583 12.8333Z" fill="#7572D5"/>
</g>


<g id="code">
    <path fill-rule="evenodd" clip-rule="evenodd" d="M18.3125 42.0645L27.2623 6.6875L31.4375 7.87241L22.4878 43.3125L18.3125 42.0645Z" fill="#7572D5"/>
    <path fill-rule="evenodd" clip-rule="evenodd" d="M13.5025 12.6875L16.5625 15.9278L7.99501 25.0001L16.5625 34.0721L13.5025 37.3125L1.875 25.0001L13.5025 12.6875Z" fill="#7572D5"/>
    <path fill-rule="evenodd" clip-rule="evenodd" d="M36.4976 12.6875L33.4375 15.9278L42.0051 25.0001L33.4375 34.0721L36.4976 37.3125L48.125 25.0001L36.4976 12.6875Z" fill="#7572D5"/>
</g>

<g id="figma">
    <path d="M17.7083 4.16663C14.2565 4.16663 11.4583 6.96486 11.4583 10.4166C11.4583 13.8684 14.2565 16.6666 17.7083 16.6666H32.2916C35.7435 16.6666 38.5416 13.8684 38.5416 10.4166C38.5416 6.96486 35.7435 4.16663 32.2916 4.16663H17.7083Z" fill="#7572D5"/>
<path d="M32.2917 18.75C28.8398 18.75 26.0417 21.5481 26.0417 25C26.0417 28.4519 28.8398 31.25 32.2917 31.25C35.7436 31.25 38.5417 28.4519 38.5417 25C38.5417 21.5481 35.7436 18.75 32.2917 18.75Z" fill="#7572D5"/>
<path d="M11.4583 25C11.4583 21.5481 14.2565 18.75 17.7083 18.75H23.9583V31.25H17.7083C14.2565 31.25 11.4583 28.4519 11.4583 25Z" fill="#7572D5"/>
<path d="M17.7083 33.3334C14.2565 33.3334 11.4583 36.1315 11.4583 39.5834C11.4583 43.0352 14.2565 45.8334 17.7083 45.8334C21.1602 45.8334 23.9583 43.0352 23.9583 39.5834V33.3334H17.7083Z" fill="#7572D5"/>
</g>

<g id="styled">
<path d="M37.2591 6.25L36.9888 7.64963C36.5708 10.3021 36.7221 11.061 37.8682 12.0454L38.9747 12.9546L37.8286 18.0305C37.1438 21.0588 36.3041 23.5968 35.7707 24.4308C35.313 25.1503 34.7796 26.2099 34.6642 26.7791C34.4732 27.4592 33.8245 28.1429 32.8334 28.7478C31.9576 29.2418 30.2385 30.5663 29.0203 31.6294C28.0472 32.4993 27.3769 33.0326 27.0129 33.2617L25.8235 34.196C25.4415 34.8046 25.2253 35.295 25.1424 35.6672C25.0595 36.0503 25.1063 36.3044 25.2289 36.4905C25.3478 36.6695 25.5532 36.7948 25.8343 36.8736C26.1671 36.951 26.5097 36.9788 26.8507 36.9559C27.6222 36.9035 28.3858 36.7691 29.1284 36.555C29.3807 36.487 29.5789 36.4225 29.7519 36.3653C30.0186 36.0395 30.6349 35.4238 31.7269 34.3535C34.6246 31.5149 35.731 29.9613 34.5885 30.3802C34.1669 30.5305 34.3579 30.1511 35.0823 29.3922C36.6104 27.9138 37.4862 25.6801 39.317 18.6748C40.7659 13.1443 40.7659 13.0656 41.8327 13.0656C42.3336 13.0656 43.75 13.1515 43.75 13.1515V6.25H40.4992H37.2591ZM24.4216 18.0806C23.3692 18.0735 21.1058 19.6664 14.3303 25.1611C14.0383 25.8519 14.0131 26.328 14.1464 26.6359C14.2329 26.8471 14.3915 26.9938 14.6114 27.1012C14.8276 27.2086 15.1087 27.2731 15.4187 27.2981C16.035 27.3518 16.763 27.2552 17.3504 27.1406L17.7469 27.0511C17.8826 26.8704 18.0608 26.7254 18.2659 26.6287C18.6839 26.3996 20.4391 24.8103 22.1943 23.1064C25.2829 19.9993 26.0073 18.5961 24.7495 18.1415C24.6463 18.1007 24.5326 18.08 24.4216 18.0806ZM32.336 20.2391C31.4098 20.2642 29.7411 21.3309 26.8831 23.5968C25.4487 24.753 24.5405 25.3759 24.0539 25.5047L22.1654 26.9867C21.4554 28.2753 21.3509 29.0736 21.5383 29.5139C21.5852 29.6225 21.6533 29.7208 21.7387 29.8031C21.8241 29.8855 21.925 29.9502 22.0357 29.9936C22.311 30.1015 22.6046 30.1562 22.9006 30.1546C23.608 30.1471 24.3112 30.0448 24.991 29.8504C25.3453 29.7559 25.6952 29.6461 26.0398 29.521L26.1443 29.4781L26.3353 29.3779C26.6957 28.9161 27.5246 28.0462 28.5626 27.044C31.8423 23.9011 33.5181 21.6674 33.1758 20.8333C33.0208 20.4288 32.7541 20.2248 32.336 20.2391ZM23.5998 24.1051C23.3331 24.1337 22.7349 24.5919 21.6573 25.5298C20.1003 26.8972 18.4028 27.6847 17.8154 27.3339C17.6788 27.3645 17.5419 27.3932 17.4045 27.4198C16.8062 27.5379 16.0602 27.6346 15.3934 27.5809C15.0793 27.562 14.7714 27.4855 14.4852 27.3554C14.2153 27.2328 13.9999 27.0164 13.8797 26.7468C13.7464 26.4247 13.7464 26.0238 13.8978 25.5119L11.5551 27.4234L6.2536 31.7798V38.8424L23.6251 25.2506C23.6217 25.1018 23.6411 24.9533 23.6827 24.8103C23.8161 24.3306 23.8089 24.0872 23.5998 24.1087V24.1051ZM31.0746 26.3925C30.8115 26.3925 30.3718 26.7612 29.669 27.5021C28.714 28.5152 27.2111 29.496 26.4146 29.6964L26.292 29.7609C26.1613 29.8145 26.0291 29.8646 25.8956 29.9112C25.6794 29.9828 25.3982 30.0687 25.0739 30.1546C24.4252 30.33 23.6179 30.4911 22.897 30.4732C22.5572 30.4728 22.2207 30.4072 21.9059 30.2799C21.6093 30.1585 21.3716 29.9275 21.2428 29.6356C21.0338 29.138 21.1167 28.44 21.5744 27.4485L6.25 39.4366V43.75H12.9823L27.2615 32.6103C27.6327 32.2022 28.1914 31.6438 28.9446 30.9457C30.9629 29.0879 31.4206 28.4472 31.4206 27.4986C31.4206 26.7612 31.3377 26.3889 31.0746 26.3889V26.3925ZM34.4732 33.3727L33.2514 34.5826C32.5667 35.2269 31.3449 36.0216 30.5088 36.3617L30.343 36.4333L30.3322 36.4512L30.2961 36.487C30.2637 36.512 30.2493 36.5156 30.2241 36.5263C29.8903 36.6518 29.5512 36.7629 29.2077 36.8592C28.4441 37.08 27.6586 37.218 26.8651 37.2709C26.4899 37.2948 26.1132 37.2622 25.7478 37.1743C25.4307 37.1049 25.1508 36.9213 24.9622 36.6588C24.7892 36.3939 24.7387 36.0395 24.836 35.6028C24.9134 35.2919 25.0284 34.9914 25.1784 34.7079L13.6563 43.75H28.9807L30.8115 41.6667C33.3271 38.7529 34.4732 36.6695 34.4732 34.8869V33.3727Z" fill="#7572D5"/>
</g>

<g id='arrowGoTop'>
<path d="M6.80722 4.2806V15H9.19278V4.2806L14.3134 9.08118L16 7.5L8 0L0 7.5L1.6866 9.08118L6.80722 4.2806Z" fill="currentColor"/>
</g>


<g id="html">
    <path d="M22.1325 102.004L13.7063 7.5H106.294L97.8563 101.989L59.9438 112.5L22.1325 102.004Z" fill="#E44F26"/>
    <path d="M60 104.468L90.6375 95.9738L97.845 15.2288H60V104.468Z" fill="#F1662A"/>
    <path d="M60 50.2763H44.6625L43.605 38.4075H60V26.8163H30.9375L31.215 29.9288L34.0613 61.8675H60V50.2763ZM60 80.3775L59.9475 80.3925L47.04 76.9088L46.215 67.665H34.5787L36.2025 85.86L59.9475 92.4525L60 92.4375V80.3775Z" fill="#EBEBEB"/>
    <path d="M59.9587 50.2763V61.8675H74.2312L72.8887 76.9013L59.9587 80.3888V92.4488L83.7225 85.86L83.895 83.9025L86.6175 53.3888L86.9025 50.2763H59.9587ZM59.9587 26.8163V38.4075H87.9562L88.1887 35.805L88.7175 29.9288L88.995 26.8163H59.9587Z" fill="white"/>
</g>


<g id="css">
<path d="M37.5524 11.275L12.4476 11.269L12.8531 16.186L32.1397 16.189L31.6535 21.2815H19.005L19.4623 26.1054H31.2373L30.5407 32.7119L24.9985 34.2199L19.3678 32.7014L19.0096 28.7447H14.0374L14.5892 35.9724L24.9985 39.1653L35.2324 36.2965L37.5509 11.2765L37.5524 11.275ZM5 3H45L41.3616 43.4311L24.9558 48L8.64149 43.4281L5 3Z" fill="#7572D5"/>
</g>


<g id="js">
    <path d="M2.25488 0H117.745V120H2.25488V0Z" fill="#F7DF1E"/>
    <path d="M32.6203 100.28L41.4584 94.7229C43.1635 97.8641 44.7145 100.522 48.435 100.522C52.0012 100.522 54.2496 99.0723 54.2496 93.4342V55.0913H65.1028V93.5936C65.1028 105.274 58.5136 110.59 48.9002 110.59C40.2181 110.59 35.1783 105.918 32.6201 100.28" fill="#1F2626"/>
    <path d="M71 99.0723L79.837 93.7559C82.1633 97.7033 85.1868 100.603 90.5357 100.603C95.0326 100.603 97.9003 98.2668 97.9003 95.0447C97.9003 91.1782 94.9545 89.8087 89.9929 87.554L87.2803 86.3449C79.4499 82.8818 74.2555 78.5321 74.2555 69.3491C74.2555 60.8912 80.4574 54.4468 90.1483 54.4468C97.048 54.4468 102.01 56.9441 105.575 63.4689L97.125 69.1071C95.2644 65.6437 93.2493 64.2746 90.1485 64.2746C86.9699 64.2746 84.9542 66.3689 84.9542 69.1071C84.9542 72.4904 86.9699 73.8601 91.6209 75.9546L94.334 77.1628C103.56 81.2711 108.754 85.4593 108.754 94.8835C108.754 105.034 101.079 110.591 90.7685 110.591C80.6904 110.591 74.1782 105.597 71.0002 99.0723" fill="#1F2626"/>
</g>



<g id="git">
    <path d="M103.62 47.8219L57.7758 1.98038C55.1372 -0.6598 50.8552 -0.6598 48.2134 1.98038L38.6937 11.5001L50.7699 23.5763C53.5762 22.6281 56.7943 23.2642 59.0313 25.5012C61.2789 27.7525 61.9106 30.9981 60.9393 33.8134L72.5775 45.452C75.3932 44.482 78.6421 45.1095 80.891 47.3621C84.034 50.5039 84.034 55.596 80.891 58.7399C77.7471 61.8841 72.655 61.8841 69.5095 58.7399C67.1454 56.3733 66.5613 52.9013 67.7582 49.9888L56.9046 39.1352L56.9034 67.6973C57.6902 68.0863 58.4088 68.6002 59.0313 69.2189C62.1743 72.3607 62.1743 77.4532 59.0313 80.5995C55.8874 83.7422 50.7929 83.7422 47.6535 80.5995C44.5105 77.4532 44.5105 72.3611 47.6535 69.2193C48.4067 68.4658 49.3019 67.869 50.2872 67.4635V38.6352C49.3004 38.2324 48.4048 37.6353 47.6535 36.8793C45.2722 34.5013 44.6996 31.0071 45.9198 28.0831L34.0154 16.1775L2.58106 47.6099C-0.0603455 50.2525 -0.0603455 54.5349 2.58106 57.1755L48.4259 103.018C51.0652 105.658 55.3464 105.658 57.9891 103.018L103.619 57.3884C106.26 54.747 106.26 50.4621 103.619 47.8219" fill="#DE4C36"/>
</g>


<g id="ts">
<path d="M5 25V45H45V5H5V25ZM37.235 23.4067C38.2517 23.66 39.025 24.1117 39.7367 24.8483C40.105 25.2417 40.6517 25.9583 40.695 26.1317C40.7083 26.1817 38.9683 27.3483 37.915 28.0033C37.8767 28.0283 37.7233 27.8633 37.5533 27.61C37.0367 26.86 36.4983 26.5367 35.6733 26.48C34.46 26.3967 33.68 27.0317 33.6867 28.0917C33.6756 28.3523 33.7343 28.6112 33.8567 28.8417C34.1233 29.3933 34.62 29.725 36.1733 30.3967C39.0383 31.63 40.2633 32.4417 41.025 33.5967C41.875 34.885 42.0667 36.9433 41.4883 38.4733C40.855 40.1367 39.28 41.2667 37.0633 41.64C36.3783 41.7617 34.7533 41.7433 34.0167 41.61C32.41 41.3233 30.8867 40.53 29.9467 39.4883C29.5783 39.0833 28.86 38.0217 28.905 37.9467C28.9233 37.92 29.0883 37.8183 29.2717 37.7117C29.4517 37.61 30.1233 37.2217 30.7583 36.8533L31.9083 36.1867L32.15 36.5433C32.4867 37.0567 33.2217 37.7617 33.6667 37.9967C34.9433 38.67 36.695 38.575 37.5583 37.8C37.7319 37.6538 37.8694 37.4693 37.9599 37.2612C38.0504 37.053 38.0915 36.8267 38.08 36.6C38.08 36.1367 38.0217 35.9333 37.78 35.5833C37.47 35.14 36.835 34.7667 35.0317 33.9833C32.9683 33.095 32.08 32.5433 31.2667 31.6667C30.759 31.0881 30.3841 30.4055 30.1683 29.6667C30.0167 29.1017 29.9783 27.685 30.0983 27.115C30.5233 25.12 32.0283 23.7317 34.2 23.3183C34.905 23.185 36.5433 23.235 37.235 23.4067ZM27.845 25.0767L27.8583 26.715H22.65V41.5083H18.9667V26.715H13.7633V25.1083C13.7633 24.2183 13.7817 23.475 13.8067 23.4583C13.8267 23.4317 16.995 23.4183 20.835 23.425L27.8267 23.445L27.845 25.0767Z" fill="#7572D5"/>
</g>


<g id="react">
<path d="M47.8125 25C47.8125 22.0833 44.6875 19.375 39.4792 17.5L38.5417 17.1875V16.7708C39.6875 11.0416 38.8542 6.7708 36.25 5.2083C33.6458 3.6458 29.7917 5.10414 25.625 8.74997L25 9.37497L24.7917 9.16664H24.5833C20.3125 5.2083 16.1458 3.85414 13.5417 5.31247C10.9375 6.7708 10.2083 10.8333 11.25 16.1458C11.3596 16.4838 11.4295 16.8333 11.4583 17.1875L10.3125 17.6041C5.20833 19.375 2.1875 22.0833 2.1875 25C2.1875 27.9166 5.52083 30.8333 10.7292 32.7083L11.4583 32.9166C11.3296 33.2854 11.2593 33.672 11.25 34.0625C10.2083 39.2708 11.1458 43.2291 13.5417 44.6875C15.9375 46.1458 20.3125 44.7916 24.4792 41.1458L25.1042 40.625L25.9375 41.4583C28.8542 43.9583 31.7708 45.3125 34.0625 45.3125C34.8708 45.3309 35.6671 45.1137 36.3542 44.6875C38.9583 43.2291 39.8958 38.9583 38.75 33.5416V33.3333C38.705 33.1619 38.6702 32.988 38.6458 32.8125H38.9583C44.4792 30.8333 47.8125 28.0208 47.8125 25ZM44.7917 25C44.7917 26.25 42.5 28.4375 38.0208 29.8958H37.8125C37.2664 28.2202 36.6051 26.5843 35.8333 25C36.5625 23.3333 37.1875 21.6666 37.7083 20.1041L38.5417 20.3125C42.7083 21.7708 44.7917 23.75 44.7917 25ZM27.9167 39.1666L27.0833 38.5416C28.2761 37.2201 29.3891 35.8287 30.4167 34.375L35.7292 33.5416C35.8333 33.75 35.8333 33.9583 35.9375 34.0625C36.3087 35.9492 36.379 37.8829 36.1458 39.7916C35.9995 40.7045 35.5608 41.5452 34.8958 42.1875C33.8542 42.8125 31.0417 41.9791 27.9167 39.1666ZM26.5625 34.5833L25.1042 36.4583L23.4375 34.5833H26.5625ZM12.2917 20C12.8152 21.7174 13.4771 23.3895 14.2708 25C13.4765 26.646 12.8146 28.3528 12.2917 30.1041L11.6667 29.8958C9.84256 29.3201 8.1454 28.4008 6.66667 27.1875C6.28377 26.9455 5.95605 26.6257 5.7048 26.2488C5.45356 25.872 5.2844 25.4465 5.20833 25C5.20833 23.75 7.29167 21.7708 11.25 20.4166L12.2917 20ZM23.4375 15.4166L25 13.6458L26.5625 15.4166H23.4375ZM34.8958 7.81247C36.0417 8.43747 36.6667 11.5625 35.7292 16.1458C35.734 16.2022 35.7272 16.2591 35.7093 16.3128C35.6914 16.3665 35.6627 16.416 35.625 16.4583L30.4167 15.625C29.3891 14.1712 28.2761 12.7799 27.0833 11.4583L27.7083 10.9375C31.0417 8.0208 33.75 7.18747 34.8958 7.81247ZM17.5 18.8541L16.6667 20.2083L15.9375 21.5625C15.625 20.8333 15.4167 20.1041 15.1042 19.2708L17.5 18.8541ZM15.1042 30.7291C15.4167 30 15.625 29.2708 15.9375 28.4375L16.6667 29.7916L17.5 31.1458L15.1042 30.7291ZM32.5 25C31.9699 26.142 31.3788 27.2548 30.7292 28.3333C30.1042 29.4791 29.375 30.5208 28.75 31.5625H21.25C20.5208 30.4166 19.7917 29.375 19.2708 28.3333C18.6161 27.2577 18.0248 26.1447 17.5 25C18.0054 23.8458 18.5974 22.7315 19.2708 21.6666C19.8693 20.5874 20.5301 19.544 21.25 18.5416C23.7457 18.3334 26.2543 18.3334 28.75 18.5416C29.4792 19.5833 30.1042 20.625 30.7292 21.6666C31.4026 22.7315 31.9946 23.8458 32.5 25ZM33.3333 20.2083L32.5 18.8541L34.8958 19.375C34.6639 20.1208 34.3856 20.8514 34.0625 21.5625L33.3333 20.2083ZM32.5 31.1458L33.3333 29.7916L34.0625 28.3333L35 30.7291L32.5 31.1458ZM22.8125 11.3541H22.9167L19.5833 15.5208L14.375 16.3541C14.2708 16.0416 14.2708 15.8333 14.1667 15.5208C13.3333 11.25 13.9583 8.3333 15 7.81247C15.2766 7.63082 15.61 7.55672 15.9375 7.60414C17.3958 7.60414 19.8958 8.6458 22.7083 11.1458L22.8125 11.3541ZM14.1667 34.5833C14.1857 34.2617 14.256 33.9452 14.375 33.6458L19.6875 34.375C20.689 35.8481 21.8034 37.2412 23.0208 38.5416L22.8125 38.75L22.6042 38.9583C21.184 40.2738 19.5211 41.2999 17.7083 41.9791C17.3107 42.1874 16.875 42.3133 16.4275 42.3491C15.98 42.3849 15.5299 42.3299 15.1042 42.1875C13.9583 41.5625 13.3333 38.75 14.1667 34.5833Z" fill="#7572D5"/>
<path d="M25 20.4166C24.0894 20.3959 23.1932 20.647 22.4259 21.1379C21.6586 21.6287 21.0549 22.3371 20.692 23.1726C20.3291 24.008 20.2233 24.9327 20.3882 25.8285C20.5532 26.7243 20.9812 27.5507 21.6179 28.2022C22.2545 28.8536 23.0709 29.3006 23.9627 29.4861C24.8545 29.6715 25.7813 29.587 26.6249 29.2434C27.4685 28.8998 28.1905 28.3126 28.6989 27.5568C29.2073 26.801 29.4789 25.9108 29.4792 24.9999C29.4795 23.8022 29.0109 22.6519 28.1738 21.7953C27.3366 20.9387 26.1974 20.4438 25 20.4166Z" fill="#7572D5"/>
</g>


<!-- skills end-->





<!-- footer start-->

<g id="instagram">
<path d="M15.6516 2.09998H5.34843C3.55687 2.09998 2.09999 3.55628 2.09999 5.34715V8.77799V15.6528C2.09999 17.4437 3.55687 18.9 5.34843 18.9H15.6516C17.4431 18.9 18.9 17.4437 18.9 15.6528V8.77143V5.34058C18.8934 3.55628 17.4366 2.09998 15.6516 2.09998ZM16.5834 4.03516H16.9575V4.40251V6.88217L14.1159 6.88873L14.1094 4.04172L16.5834 4.03516ZM8.09812 8.77143C8.63624 8.03016 9.50906 7.53816 10.4934 7.53816C11.4778 7.53816 12.3506 8.0236 12.8887 8.77143C13.2431 9.25687 13.4466 9.85382 13.4466 10.4967C13.4466 12.1236 12.1209 13.4552 10.4869 13.4552C8.85281 13.4552 7.54031 12.1236 7.54031 10.4967C7.54031 9.85382 7.75031 9.25687 8.09812 8.77143ZM17.2594 15.6462C17.2594 16.5318 16.5375 17.2534 15.6516 17.2534H5.34843C4.46249 17.2534 3.74062 16.5318 3.74062 15.6462V8.77143H6.24749C6.03093 9.30279 5.90624 9.88662 5.90624 10.4967C5.90624 13.0288 7.96687 15.0887 10.5 15.0887C13.0331 15.0887 15.0937 13.0288 15.0937 10.4967C15.0937 9.88662 14.9691 9.30279 14.7525 8.77143H17.2594V15.6462Z" fill="currentColor"/>
</g>

<g id="telegram">
    <path d="M18.9057 4.76449L16.3705 16.7208C16.1791 17.5644 15.6804 17.7745 14.9717 17.3772L11.1085 14.5305L9.24472 16.3235C9.0383 16.5299 8.86608 16.7022 8.46824 16.7022L8.74607 12.7681L15.9054 6.29885C16.2169 6.02162 15.8376 5.86741 15.4218 6.14524L6.57084 11.7186L2.76043 10.5257C1.93174 10.2671 1.91674 9.69701 2.93325 9.29917L17.837 3.55716C18.5271 3.29854 19.1308 3.71018 18.9057 4.76449Z" fill="#1F1F20"/>
</g>

<g id="vk">
<path d="M18.1696 13.9941C17.8038 13.5391 17.3881 13.1314 16.9861 12.737C16.8432 12.5968 16.6954 12.4518 16.5529 12.3076C16.1439 11.8932 16.129 11.7375 16.4529 11.2668C16.6769 10.9424 16.9145 10.6175 17.1442 10.3033C17.3526 10.0183 17.568 9.72351 17.7746 9.42777L17.817 9.36697C18.2117 8.80103 18.6199 8.21583 18.8372 7.50988C18.8936 7.32363 18.9528 7.04955 18.8174 6.82036C18.682 6.59137 18.4195 6.52151 18.2337 6.48888C18.1418 6.47273 18.0506 6.47053 17.9659 6.47053L15.3809 6.46861L15.3595 6.46842C14.9687 6.46842 14.7053 6.65927 14.5544 7.05194C14.4103 7.42713 14.252 7.82665 14.0714 8.20653C13.7119 8.96298 13.2554 9.83425 12.5948 10.5609L12.5669 10.5918C12.4889 10.6787 12.4005 10.777 12.3359 10.777C12.326 10.777 12.3152 10.7751 12.303 10.7711C12.1662 10.7159 12.0744 10.3726 12.0785 10.213C12.0786 10.2108 12.0786 10.2086 12.0786 10.2064L12.0768 7.1105C12.0768 7.09976 12.0761 7.08913 12.0747 7.07849C12.009 6.57522 11.8633 6.26195 11.3129 6.15026C11.2983 6.14724 11.2834 6.14575 11.2685 6.14575H8.5806C8.14268 6.14575 7.90138 6.33018 7.67456 6.60623C7.61334 6.68002 7.48589 6.83364 7.54906 7.01998C7.61315 7.20911 7.8212 7.24955 7.88894 7.26268C8.22522 7.32899 8.41477 7.54213 8.46846 7.91453C8.56219 8.56121 8.57371 9.25144 8.50471 10.0868C8.48547 10.3189 8.44742 10.4982 8.38471 10.6514C8.37015 10.6872 8.31849 10.8038 8.26582 10.8039C8.24908 10.8039 8.20067 10.7971 8.11248 10.7341C7.90397 10.5861 7.75142 10.3749 7.57357 10.114C6.96853 9.22796 6.46074 8.25191 6.02097 7.12938C5.85787 6.71615 5.55327 6.48481 5.16289 6.478C4.73395 6.47125 4.34504 6.46799 3.97413 6.46799C3.56886 6.46799 3.19314 6.47187 2.82625 6.47978C2.51217 6.48553 2.29492 6.58308 2.18061 6.76996C2.06611 6.95697 2.07356 7.20264 2.20276 7.50001C3.23702 9.88254 4.17478 11.6149 5.24345 13.1171C5.99225 14.1683 6.74333 14.8959 7.60686 15.4068C8.51664 15.9461 9.5362 16.2083 10.7237 16.2083C10.8583 16.2083 10.9975 16.2048 11.1379 16.198C11.8279 16.1632 12.0839 15.9044 12.1163 15.2082C12.1317 14.8525 12.1692 14.4793 12.338 14.1611C12.4445 13.9606 12.5439 13.9606 12.5765 13.9606C12.6394 13.9606 12.7174 13.9906 12.8011 14.0468C12.9513 14.1484 13.0801 14.2845 13.1857 14.4034C13.285 14.5163 13.3833 14.6304 13.4817 14.7446C13.6939 14.9909 13.9134 15.2456 14.1427 15.4871C14.6445 16.0162 15.1973 16.2488 15.8323 16.1983H18.2023C18.2073 16.1983 18.2124 16.1981 18.2175 16.1978C18.4536 16.1817 18.6582 16.0459 18.7786 15.8254C18.9279 15.5522 18.9249 15.2037 18.7706 14.893C18.5956 14.5415 18.3685 14.2413 18.1696 13.9941Z" fill="currentColor"/>
</g>




<g id="linkedin">
<path fill-rule="evenodd" clip-rule="evenodd" d="M5 3H19C20.1046 3 21 3.89543 21 5V19C21 20.1046 20.1046 21 19 21H5C3.89543 21 3 20.1046 3 19V5C3 3.89543 3.89543 3 5 3ZM8 18C8.27614 18 8.5 17.7761 8.5 17.5V10.5C8.5 10.2239 8.27614 10 8 10H6.5C6.22386 10 6 10.2239 6 10.5V17.5C6 17.7761 6.22386 18 6.5 18H8ZM7.25 9C6.42157 9 5.75 8.32843 5.75 7.5C5.75 6.67157 6.42157 6 7.25 6C8.07843 6 8.75 6.67157 8.75 7.5C8.75 8.32843 8.07843 9 7.25 9ZM17.5 18C17.7761 18 18 17.7761 18 17.5V12.9C18.0325 11.3108 16.8576 9.95452 15.28 9.76C14.177 9.65925 13.1083 10.1744 12.5 11.1V10.5C12.5 10.2239 12.2761 10 12 10H10.5C10.2239 10 10 10.2239 10 10.5V17.5C10 17.7761 10.2239 18 10.5 18H12C12.2761 18 12.5 17.7761 12.5 17.5V13.75C12.5 12.9216 13.1716 12.25 14 12.25C14.8284 12.25 15.5 12.9216 15.5 13.75V17.5C15.5 17.7761 15.7239 18 16 18H17.5Z" fill="currentColor"/>
</g>

<symbol id="github" viewBox="0 0 35 35" width="21" height="21">
<path fill-rule="evenodd" clip-rule="evenodd" d="M17.5001 1.09375C8.2342 1.09375 0.729248 8.5987 0.729248 17.8646C0.729248 25.2857 5.5299 31.5538 12.1963 33.7759C13.0348 33.9227 13.3493 33.4195 13.3493 32.9793C13.3493 32.581 13.3283 31.2603 13.3283 29.8557C9.11467 30.6314 8.02456 28.8285 7.68914 27.8852C7.50047 27.403 6.68289 25.9146 5.97013 25.5163C5.38315 25.2018 4.54461 24.4262 5.94917 24.4052C7.26987 24.3842 8.21323 25.6211 8.52768 26.1242C10.0371 28.6608 12.4479 27.948 13.4122 27.5078C13.5589 26.4177 13.9992 25.684 14.4813 25.2647C10.7498 24.8454 6.8506 23.399 6.8506 16.9841C6.8506 15.1603 7.50047 13.6509 8.56961 12.477C8.4019 12.0577 7.81492 10.3387 8.73732 8.03268C8.73732 8.03268 10.1419 7.59245 13.3493 9.75169C14.691 9.37435 16.1165 9.18568 17.542 9.18568C18.9675 9.18568 20.393 9.37435 21.7347 9.75169C24.9421 7.57148 26.3467 8.03268 26.3467 8.03268C27.2691 10.3387 26.6821 12.0577 26.5144 12.477C27.5835 13.6509 28.2334 15.1393 28.2334 16.9841C28.2334 23.4199 24.3132 24.8454 20.5817 25.2647C21.1897 25.7888 21.7138 26.7951 21.7138 28.3673C21.7138 30.6104 21.6928 32.4133 21.6928 32.9793C21.6928 33.4195 22.0072 33.9436 22.8458 33.7759C29.4703 31.5538 34.2709 25.2647 34.2709 17.8646C34.2709 8.5987 26.766 1.09375 17.5001 1.09375Z" fill="currentColor"/>
</symbol>




</svg>
